<?xml version="1.0" encoding="utf-8"?>
<svg xmlns="http://www.w3.org/2000/svg" viewBox="0 0 192 192" width="192px" height="192px">
  <g transform="matrix(0.375, 0, 0, 0.375, 5.684341886080802e-14, 0)">
    <rect style="fill: rgb(74, 158, 237); stroke-width: 1.024px; stroke: rgba(0, 0, 0, 0);" width="512" height="512" rx="64" ry="64" y="0" x="0"/>
    <g transform="matrix(0.871033, 0, 0, 0.871033, -16.095667, -17.508829)" style="">
      <path fill-rule="evenodd" clip-rule="evenodd" d="M 234.456 198.278 C 234.574 200.664 234.768 203.052 235.082 205.468 C 261.742 208.796 286.657 200.679 305.528 185.358 C 309.035 185.089 312.495 185.029 315.897 185.224 C 334.65 186.238 350.121 194.204 358.863 209.705 C 365.486 221.476 369.352 234.411 369.352 250.226 C 369.352 281.271 355.119 313.66 334.293 344.393 C 318.569 367.592 287.357 375.783 258.386 365.637 L 254.924 364.429 C 251.732 363.311 248.255 363.311 245.062 364.429 L 241.601 365.637 C 212.643 375.783 181.419 367.592 165.694 344.393 C 144.867 313.66 130.649 281.271 130.649 250.226 C 130.649 234.873 134.274 222.237 140.496 210.749 C 149.044 194.995 164.545 186.775 183.462 185.582 C 200.171 184.523 218.641 189.103 234.456 198.278 Z M 264.92 124.697 L 264.92 115.956 C 264.92 107.705 258.236 101.035 250 101.035 C 241.751 101.035 235.082 107.705 235.082 115.956 L 235.082 165.337 C 218 158.131 199.381 154.67 181.582 155.803 C 154.834 157.488 128.77 169.782 114.268 196.532 C 105.78 212.196 100.811 229.697 100.811 250.226 C 100.811 289.938 118.745 328.295 141.002 361.131 C 165.456 397.221 211.166 407.261 250 394.297 C 288.819 407.261 334.531 397.206 358.998 361.131 C 381.243 328.295 399.189 289.938 399.189 250.226 C 399.189 229.055 393.893 211.108 384.853 195.055 C 372.231 172.662 351.494 160.696 329.205 156.759 C 337.977 140.437 342.035 121.236 339.514 101.035 C 310.84 97.441 284.21 107.108 264.92 124.697 Z" style="stroke-width: 1px; fill: rgb(255, 255, 255);"/>
      <g id="Page-1" stroke="none" stroke-width="1" fill="none" fill-rule="evenodd" transform="matrix(8.893784, 8.893784, -8.893784, 8.893784, 360.168457, 369.350952)" style="transform-origin: 2.99788px 16.0039px 0px;">
        <g id="Icon-Set-Filled" transform="translate(-583.000000, -101.000000)" fill="#000000">
          <path d="M583,123 L589,123 L589,110 L583,110 L583,123 Z M586,133.009 L589,125 L583,125 L586,133.009 L586,133.009 Z M587,101 L585,101 C583.367,100.963 582.947,101.841 583,103 L583,108 L589,108 L589,103 C589.007,101.788 588.635,101.008 587,101 L587,101 Z" id="pencil" style="fill: rgb(255, 255, 255);"/>
        </g>
      </g>
    </g>
  </g>
</svg>